<mxfile host="app.diagrams.net" modified="2023-05-18T10:21:38.206Z" agent="Mozilla/5.0 (Windows NT 10.0; Win64; x64) AppleWebKit/537.36 (KHTML, like Gecko) Chrome/113.0.0.0 Safari/537.36" etag="hlGyQs_HhHQ00cgI8d-R" version="21.1.2" type="github">
  <diagram name="Halaman-1" id="ZBfDUgoXRN-6EZ7WRTzR">
    <mxGraphModel dx="1793" dy="995" grid="1" gridSize="10" guides="1" tooltips="1" connect="1" arrows="1" fold="1" page="1" pageScale="1" pageWidth="827" pageHeight="1169" math="0" shadow="0">
      <root>
        <mxCell id="0" />
        <mxCell id="1" parent="0" />
        <mxCell id="p0MvFFV58l13qUeq1pF_-47" style="edgeStyle=orthogonalEdgeStyle;rounded=0;orthogonalLoop=1;jettySize=auto;html=1;" edge="1" parent="1" source="p0MvFFV58l13qUeq1pF_-2" target="p0MvFFV58l13qUeq1pF_-4">
          <mxGeometry relative="1" as="geometry" />
        </mxCell>
        <mxCell id="p0MvFFV58l13qUeq1pF_-2" value="" style="outlineConnect=0;dashed=0;verticalLabelPosition=bottom;verticalAlign=top;align=center;html=1;shape=mxgraph.aws3.mobile_client;fillColor=#D2D3D3;gradientColor=none;" vertex="1" parent="1">
          <mxGeometry x="70" y="130" width="90" height="140" as="geometry" />
        </mxCell>
        <mxCell id="p0MvFFV58l13qUeq1pF_-48" style="edgeStyle=orthogonalEdgeStyle;rounded=0;orthogonalLoop=1;jettySize=auto;html=1;entryX=0;entryY=0.5;entryDx=0;entryDy=0;" edge="1" parent="1" source="p0MvFFV58l13qUeq1pF_-4" target="p0MvFFV58l13qUeq1pF_-6">
          <mxGeometry relative="1" as="geometry" />
        </mxCell>
        <mxCell id="p0MvFFV58l13qUeq1pF_-4" value="Mengirim ke aplikasi layanan" style="shape=parallelogram;perimeter=parallelogramPerimeter;whiteSpace=wrap;html=1;fixedSize=1;" vertex="1" parent="1">
          <mxGeometry x="40" y="380" width="150" height="60" as="geometry" />
        </mxCell>
        <mxCell id="p0MvFFV58l13qUeq1pF_-17" style="edgeStyle=orthogonalEdgeStyle;rounded=0;orthogonalLoop=1;jettySize=auto;html=1;entryX=0.5;entryY=1;entryDx=0;entryDy=0;" edge="1" parent="1" source="p0MvFFV58l13qUeq1pF_-6" target="p0MvFFV58l13qUeq1pF_-7">
          <mxGeometry relative="1" as="geometry" />
        </mxCell>
        <mxCell id="p0MvFFV58l13qUeq1pF_-6" value="Verifikasi oleh Operator layanan" style="shape=process;whiteSpace=wrap;html=1;backgroundOutline=1;" vertex="1" parent="1">
          <mxGeometry x="270" y="380" width="140" height="60" as="geometry" />
        </mxCell>
        <mxCell id="p0MvFFV58l13qUeq1pF_-19" value="&lt;font style=&quot;font-size: 12px;&quot;&gt;&lt;br&gt;&lt;span style=&quot;color: rgb(0, 0, 0); font-family: Helvetica; font-style: normal; font-variant-ligatures: normal; font-variant-caps: normal; font-weight: 400; letter-spacing: normal; orphans: 2; text-align: center; text-indent: 0px; text-transform: none; widows: 2; word-spacing: 0px; -webkit-text-stroke-width: 0px; background-color: rgb(255, 255, 255); text-decoration-thickness: initial; text-decoration-style: initial; text-decoration-color: initial; float: none; display: inline !important;&quot;&gt;Diterima&lt;/span&gt;&lt;br&gt;&lt;/font&gt;" style="edgeStyle=orthogonalEdgeStyle;rounded=0;orthogonalLoop=1;jettySize=auto;html=1;exitX=1;exitY=0.5;exitDx=0;exitDy=0;entryX=0;entryY=0.5;entryDx=0;entryDy=0;" edge="1" parent="1" source="p0MvFFV58l13qUeq1pF_-7" target="p0MvFFV58l13qUeq1pF_-10">
          <mxGeometry relative="1" as="geometry">
            <mxPoint as="offset" />
          </mxGeometry>
        </mxCell>
        <mxCell id="p0MvFFV58l13qUeq1pF_-22" style="edgeStyle=orthogonalEdgeStyle;rounded=0;orthogonalLoop=1;jettySize=auto;html=1;exitX=0.5;exitY=0;exitDx=0;exitDy=0;" edge="1" parent="1" source="p0MvFFV58l13qUeq1pF_-7" target="p0MvFFV58l13qUeq1pF_-2">
          <mxGeometry relative="1" as="geometry" />
        </mxCell>
        <mxCell id="p0MvFFV58l13qUeq1pF_-7" value="Verikasi" style="rhombus;whiteSpace=wrap;html=1;" vertex="1" parent="1">
          <mxGeometry x="280" y="220" width="120" height="80" as="geometry" />
        </mxCell>
        <mxCell id="p0MvFFV58l13qUeq1pF_-20" style="edgeStyle=orthogonalEdgeStyle;rounded=0;orthogonalLoop=1;jettySize=auto;html=1;exitX=0.5;exitY=0;exitDx=0;exitDy=0;entryX=0.5;entryY=1;entryDx=0;entryDy=0;" edge="1" parent="1" source="p0MvFFV58l13qUeq1pF_-10" target="p0MvFFV58l13qUeq1pF_-11">
          <mxGeometry relative="1" as="geometry" />
        </mxCell>
        <mxCell id="p0MvFFV58l13qUeq1pF_-10" value="Verifikasi oleh Kasi" style="shape=process;whiteSpace=wrap;html=1;backgroundOutline=1;" vertex="1" parent="1">
          <mxGeometry x="530" y="380" width="140" height="60" as="geometry" />
        </mxCell>
        <mxCell id="p0MvFFV58l13qUeq1pF_-21" style="edgeStyle=orthogonalEdgeStyle;rounded=0;orthogonalLoop=1;jettySize=auto;html=1;exitX=0.5;exitY=0;exitDx=0;exitDy=0;" edge="1" parent="1" source="p0MvFFV58l13qUeq1pF_-11" target="p0MvFFV58l13qUeq1pF_-2">
          <mxGeometry relative="1" as="geometry" />
        </mxCell>
        <mxCell id="p0MvFFV58l13qUeq1pF_-29" style="edgeStyle=orthogonalEdgeStyle;rounded=0;orthogonalLoop=1;jettySize=auto;html=1;entryX=0;entryY=0.5;entryDx=0;entryDy=0;" edge="1" parent="1" source="p0MvFFV58l13qUeq1pF_-11" target="p0MvFFV58l13qUeq1pF_-12">
          <mxGeometry relative="1" as="geometry" />
        </mxCell>
        <mxCell id="p0MvFFV58l13qUeq1pF_-41" value="&lt;font style=&quot;font-size: 12px;&quot;&gt;Diterima&lt;/font&gt;" style="edgeLabel;html=1;align=center;verticalAlign=middle;resizable=0;points=[];" vertex="1" connectable="0" parent="p0MvFFV58l13qUeq1pF_-29">
          <mxGeometry x="-0.2232" y="-3" relative="1" as="geometry">
            <mxPoint as="offset" />
          </mxGeometry>
        </mxCell>
        <mxCell id="p0MvFFV58l13qUeq1pF_-11" value="Verikasi" style="rhombus;whiteSpace=wrap;html=1;" vertex="1" parent="1">
          <mxGeometry x="540" y="220" width="120" height="80" as="geometry" />
        </mxCell>
        <mxCell id="p0MvFFV58l13qUeq1pF_-24" style="edgeStyle=orthogonalEdgeStyle;rounded=0;orthogonalLoop=1;jettySize=auto;html=1;entryX=0.5;entryY=1;entryDx=0;entryDy=0;" edge="1" parent="1" source="p0MvFFV58l13qUeq1pF_-12" target="p0MvFFV58l13qUeq1pF_-23">
          <mxGeometry relative="1" as="geometry" />
        </mxCell>
        <mxCell id="p0MvFFV58l13qUeq1pF_-12" value="Verifikasi oleh Kabid" style="shape=process;whiteSpace=wrap;html=1;backgroundOutline=1;" vertex="1" parent="1">
          <mxGeometry x="790" y="380" width="140" height="60" as="geometry" />
        </mxCell>
        <mxCell id="p0MvFFV58l13qUeq1pF_-26" style="edgeStyle=orthogonalEdgeStyle;rounded=0;orthogonalLoop=1;jettySize=auto;html=1;entryX=0.5;entryY=1;entryDx=0;entryDy=0;" edge="1" parent="1" source="p0MvFFV58l13qUeq1pF_-13" target="p0MvFFV58l13qUeq1pF_-25">
          <mxGeometry relative="1" as="geometry" />
        </mxCell>
        <mxCell id="p0MvFFV58l13qUeq1pF_-13" value="Verifikasi oleh &lt;code&gt;distribusi&lt;/code&gt;" style="shape=process;whiteSpace=wrap;html=1;backgroundOutline=1;" vertex="1" parent="1">
          <mxGeometry x="1050" y="380" width="140" height="60" as="geometry" />
        </mxCell>
        <mxCell id="p0MvFFV58l13qUeq1pF_-28" style="edgeStyle=orthogonalEdgeStyle;rounded=0;orthogonalLoop=1;jettySize=auto;html=1;entryX=0.5;entryY=1;entryDx=0;entryDy=0;" edge="1" parent="1" source="p0MvFFV58l13qUeq1pF_-14" target="p0MvFFV58l13qUeq1pF_-27">
          <mxGeometry relative="1" as="geometry" />
        </mxCell>
        <mxCell id="p0MvFFV58l13qUeq1pF_-14" value="Verifikasi oleh&amp;nbsp;&lt;br&gt;&lt;code&gt;kepala_dispenduk&lt;/code&gt;" style="shape=process;whiteSpace=wrap;html=1;backgroundOutline=1;" vertex="1" parent="1">
          <mxGeometry x="1310" y="380" width="140" height="60" as="geometry" />
        </mxCell>
        <mxCell id="p0MvFFV58l13qUeq1pF_-30" style="edgeStyle=orthogonalEdgeStyle;rounded=0;orthogonalLoop=1;jettySize=auto;html=1;entryX=0;entryY=0.5;entryDx=0;entryDy=0;" edge="1" parent="1" source="p0MvFFV58l13qUeq1pF_-23" target="p0MvFFV58l13qUeq1pF_-13">
          <mxGeometry relative="1" as="geometry" />
        </mxCell>
        <mxCell id="p0MvFFV58l13qUeq1pF_-40" value="&lt;font style=&quot;font-size: 12px;&quot;&gt;Diterima&lt;/font&gt;" style="edgeLabel;html=1;align=center;verticalAlign=middle;resizable=0;points=[];" vertex="1" connectable="0" parent="p0MvFFV58l13qUeq1pF_-30">
          <mxGeometry x="-0.2321" y="3" relative="1" as="geometry">
            <mxPoint x="-8" y="-2" as="offset" />
          </mxGeometry>
        </mxCell>
        <mxCell id="p0MvFFV58l13qUeq1pF_-33" style="edgeStyle=orthogonalEdgeStyle;rounded=0;orthogonalLoop=1;jettySize=auto;html=1;exitX=0.5;exitY=0;exitDx=0;exitDy=0;" edge="1" parent="1" source="p0MvFFV58l13qUeq1pF_-23">
          <mxGeometry relative="1" as="geometry">
            <mxPoint x="160" y="200" as="targetPoint" />
            <Array as="points">
              <mxPoint x="860" y="200" />
            </Array>
          </mxGeometry>
        </mxCell>
        <mxCell id="p0MvFFV58l13qUeq1pF_-23" value="Verikasi" style="rhombus;whiteSpace=wrap;html=1;" vertex="1" parent="1">
          <mxGeometry x="800" y="220" width="120" height="80" as="geometry" />
        </mxCell>
        <mxCell id="p0MvFFV58l13qUeq1pF_-31" style="edgeStyle=orthogonalEdgeStyle;rounded=0;orthogonalLoop=1;jettySize=auto;html=1;entryX=0;entryY=0.5;entryDx=0;entryDy=0;" edge="1" parent="1" source="p0MvFFV58l13qUeq1pF_-25" target="p0MvFFV58l13qUeq1pF_-14">
          <mxGeometry relative="1" as="geometry" />
        </mxCell>
        <mxCell id="p0MvFFV58l13qUeq1pF_-45" value="Diterima" style="edgeLabel;html=1;align=center;verticalAlign=middle;resizable=0;points=[];" vertex="1" connectable="0" parent="p0MvFFV58l13qUeq1pF_-31">
          <mxGeometry x="-0.0982" relative="1" as="geometry">
            <mxPoint x="-1" as="offset" />
          </mxGeometry>
        </mxCell>
        <mxCell id="p0MvFFV58l13qUeq1pF_-32" style="edgeStyle=orthogonalEdgeStyle;rounded=0;orthogonalLoop=1;jettySize=auto;html=1;entryX=1;entryY=0.5;entryDx=0;entryDy=0;entryPerimeter=0;exitX=0.5;exitY=0;exitDx=0;exitDy=0;" edge="1" parent="1" source="p0MvFFV58l13qUeq1pF_-25" target="p0MvFFV58l13qUeq1pF_-2">
          <mxGeometry relative="1" as="geometry" />
        </mxCell>
        <mxCell id="p0MvFFV58l13qUeq1pF_-25" value="Verikasi" style="rhombus;whiteSpace=wrap;html=1;" vertex="1" parent="1">
          <mxGeometry x="1060" y="220" width="120" height="80" as="geometry" />
        </mxCell>
        <mxCell id="p0MvFFV58l13qUeq1pF_-35" style="edgeStyle=orthogonalEdgeStyle;rounded=0;orthogonalLoop=1;jettySize=auto;html=1;entryX=1;entryY=0.5;entryDx=0;entryDy=0;entryPerimeter=0;exitX=0.5;exitY=0;exitDx=0;exitDy=0;" edge="1" parent="1" source="p0MvFFV58l13qUeq1pF_-27" target="p0MvFFV58l13qUeq1pF_-2">
          <mxGeometry relative="1" as="geometry" />
        </mxCell>
        <mxCell id="p0MvFFV58l13qUeq1pF_-44" style="edgeStyle=orthogonalEdgeStyle;rounded=0;orthogonalLoop=1;jettySize=auto;html=1;entryX=0;entryY=0.5;entryDx=0;entryDy=0;" edge="1" parent="1" source="p0MvFFV58l13qUeq1pF_-27" target="p0MvFFV58l13qUeq1pF_-43">
          <mxGeometry relative="1" as="geometry" />
        </mxCell>
        <mxCell id="p0MvFFV58l13qUeq1pF_-46" value="Diterima" style="edgeLabel;html=1;align=center;verticalAlign=middle;resizable=0;points=[];" vertex="1" connectable="0" parent="p0MvFFV58l13qUeq1pF_-44">
          <mxGeometry x="0.1933" relative="1" as="geometry">
            <mxPoint x="-20" as="offset" />
          </mxGeometry>
        </mxCell>
        <mxCell id="p0MvFFV58l13qUeq1pF_-27" value="Verikasi" style="rhombus;whiteSpace=wrap;html=1;" vertex="1" parent="1">
          <mxGeometry x="1320" y="220" width="120" height="80" as="geometry" />
        </mxCell>
        <mxCell id="p0MvFFV58l13qUeq1pF_-37" value="&lt;font style=&quot;font-size: 24px;&quot;&gt;Android&lt;/font&gt;" style="text;html=1;strokeColor=none;fillColor=none;align=center;verticalAlign=middle;whiteSpace=wrap;rounded=0;" vertex="1" parent="1">
          <mxGeometry x="70" y="80" width="90" height="30" as="geometry" />
        </mxCell>
        <mxCell id="p0MvFFV58l13qUeq1pF_-39" value="&lt;font style=&quot;font-size: 24px;&quot;&gt;Ditolak&lt;/font&gt;" style="text;html=1;strokeColor=none;fillColor=none;align=center;verticalAlign=middle;whiteSpace=wrap;rounded=0;" vertex="1" parent="1">
          <mxGeometry x="827" y="160" width="90" height="30" as="geometry" />
        </mxCell>
        <mxCell id="p0MvFFV58l13qUeq1pF_-43" value="Dokumen Proses Cetak" style="shape=process;whiteSpace=wrap;html=1;backgroundOutline=1;" vertex="1" parent="1">
          <mxGeometry x="1590" y="230" width="140" height="60" as="geometry" />
        </mxCell>
      </root>
    </mxGraphModel>
  </diagram>
</mxfile>
